<svg id="tas-lines" xmlns="http://www.w3.org/2000/svg" width="1159.945" height="134.8" viewBox="0 0 1159.945 134.8">
  <g id="Group_6" data-name="Group 6" transform="translate(0 39.8)">
    <path id="Path_30" data-name="Path 30" d="M4.7,134.8h0A4.7,4.7,0,0,1,0,130.1V44.5a4.7,4.7,0,0,1,4.7-4.7h0a4.7,4.7,0,0,1,4.7,4.7v85.6A4.632,4.632,0,0,1,4.7,134.8Z" transform="translate(0 -39.8)" fill="#00abac"/>
  </g>
  <g id="Group_7" data-name="Group 7" transform="translate(285.152 11.2)">
    <path id="Path_31" data-name="Path 31" d="M33.4,134.8h0a4.7,4.7,0,0,1-4.7-4.7V15.9a4.7,4.7,0,0,1,4.7-4.7h0a4.7,4.7,0,0,1,4.7,4.7V130.1A4.7,4.7,0,0,1,33.4,134.8Z" transform="translate(-28.7 -11.2)" fill="#00abac"/>
  </g>
  <g id="Group_8" data-name="Group 8" transform="translate(566.345 66.9)">
    <path id="Path_32" data-name="Path 32" d="M61.7,134.8h0a4.7,4.7,0,0,1-4.7-4.7V71.6a4.7,4.7,0,0,1,4.7-4.7h0a4.7,4.7,0,0,1,4.7,4.7v58.5A4.632,4.632,0,0,1,61.7,134.8Z" transform="translate(-57 -66.9)" fill="#00abac"/>
  </g>
  <g id="Group_9" data-name="Group 9" transform="translate(854.463 46.6)">
    <path id="Path_33" data-name="Path 33" d="M90.7,134.8h0a4.7,4.7,0,0,1-4.7-4.7V51.3a4.7,4.7,0,0,1,4.7-4.7h0a4.7,4.7,0,0,1,4.7,4.7v78.8A4.7,4.7,0,0,1,90.7,134.8Z" transform="translate(-86 -46.6)" fill="#00abac"/>
  </g>
  <g id="Group_10" data-name="Group 10" transform="translate(1150.545)">
    <path id="Path_34" data-name="Path 34" d="M120.5,134.8h0a4.7,4.7,0,0,1-4.7-4.7V4.7A4.7,4.7,0,0,1,120.5,0h0a4.7,4.7,0,0,1,4.7,4.7V130.1A4.7,4.7,0,0,1,120.5,134.8Z" transform="translate(-115.8)" fill="#00abac"/>
  </g>
</svg>
