<?xml version="1.0" encoding="utf-8"?>
<!-- Generator: Adobe Illustrator 28.1.0, SVG Export Plug-In . SVG Version: 6.00 Build 0)  -->
<svg version="1.1" id="Layer_1" xmlns="http://www.w3.org/2000/svg" xmlns:xlink="http://www.w3.org/1999/xlink" x="0px" y="0px"
	 viewBox="0 0 125.2 134.8" style="enable-background:new 0 0 125.2 134.8;" xml:space="preserve">
<style type="text/css">
	.st0{fill:#808080;}
	.st1{fill:#FF0000;}
	.st2{fill:none;}
	.st3{fill:#0C090A;}
	.st4{fill:#00ABAC;}
</style>
<g>
	<g>
		<path class="st4" d="M4.7,134.8L4.7,134.8c-2.6,0-4.7-2.1-4.7-4.7V44.5c0-2.6,2.1-4.7,4.7-4.7h0c2.6,0,4.7,2.1,4.7,4.7v85.6
			C9.5,132.7,7.3,134.8,4.7,134.8z"/>
	</g>
	<g>
		<path class="st4" d="M33.4,134.8L33.4,134.8c-2.6,0-4.7-2.1-4.7-4.7V15.9c0-2.6,2.1-4.7,4.7-4.7h0c2.6,0,4.7,2.1,4.7,4.7v114.2
			C38.1,132.7,36,134.8,33.4,134.8z"/>
	</g>
	<g>
		<path class="st4" d="M61.7,134.8L61.7,134.8c-2.6,0-4.7-2.1-4.7-4.7V71.6c0-2.6,2.1-4.7,4.7-4.7h0c2.6,0,4.7,2.1,4.7,4.7v58.5
			C66.5,132.7,64.3,134.8,61.7,134.8z"/>
	</g>
	<g>
		<path class="st4" d="M90.7,134.8L90.7,134.8c-2.6,0-4.7-2.1-4.7-4.7V51.3c0-2.6,2.1-4.7,4.7-4.7h0c2.6,0,4.7,2.1,4.7,4.7v78.8
			C95.4,132.7,93.3,134.8,90.7,134.8z"/>
	</g>
	<g>
		<path class="st4" d="M120.5,134.8L120.5,134.8c-2.6,0-4.7-2.1-4.7-4.7V4.7c0-2.6,2.1-4.7,4.7-4.7h0c2.6,0,4.7,2.1,4.7,4.7v125.4
			C125.2,132.7,123.1,134.8,120.5,134.8z"/>
	</g>
</g>
</svg>
