<?xml version="1.0" encoding="UTF-8"?><svg id="Layer_1" xmlns="http://www.w3.org/2000/svg" viewBox="0 0 230.14 400.39"><defs><style>.cls-1{fill:#0c090a;}.cls-1,.cls-2{stroke-width:0px;}.cls-2{fill:#00abac;}</style></defs><path class="cls-1" d="M115.25,400.39c-4.81,0-9.23-2.42-11.81-6.48L2.57,235.42c-2.79-4.38-2.96-9.71-.46-14.26,2.5-4.55,7.09-7.27,12.28-7.27h201.71c5.19,0,9.78,2.72,12.28,7.27,2.5,4.55,2.32,9.88-.47,14.26l-100.85,158.49c-2.58,4.06-7,6.48-11.82,6.48ZM14.39,223.36c-2.43,0-3.59,1.65-3.98,2.36-.39.71-1.15,2.58.15,4.62l100.86,158.49c1.21,1.9,3.08,2.1,3.83,2.1s2.63-.2,3.83-2.1l100.85-158.49c1.3-2.05.54-3.91.15-4.62-.39-.71-1.56-2.36-3.98-2.36H14.39Z"/><path class="cls-2" d="M114.89,293.89c-4.81,0-9.23-2.42-11.81-6.48L2.22,128.92c-2.79-4.38-2.96-9.71-.46-14.26s7.09-7.27,12.28-7.27h201.71c5.19,0,9.78,2.72,12.28,7.27s2.32,9.88-.46,14.26l-100.85,158.49c-2.58,4.06-7,6.48-11.82,6.48ZM10.2,123.84l100.86,158.49c1.21,1.9,3.08,2.1,3.83,2.1s2.63-.2,3.83-2.1l100.85-158.49c1.3-2.05.54-3.92.15-4.63s-1.56-2.36-3.98-2.36H14.04c-2.43,0-3.59,1.65-3.98,2.36s-1.15,2.58.15,4.63h0Z"/><path class="cls-1" d="M114.89,186.49c-4.81,0-9.23-2.42-11.81-6.48L2.22,21.52C-.57,17.14-.74,11.81,1.76,7.27,4.25,2.72,8.85,0,14.04,0h201.71c5.19,0,9.78,2.72,12.28,7.27,2.5,4.55,2.32,9.88-.47,14.26l-100.85,158.49c-2.58,4.06-7,6.48-11.82,6.48ZM14.04,9.46c-2.43,0-3.59,1.65-3.98,2.36-.39.71-1.15,2.58.15,4.62l100.86,158.49c1.21,1.9,3.08,2.1,3.83,2.1s2.63-.2,3.83-2.1L219.58,16.44c1.3-2.05.54-3.91.15-4.62-.39-.71-1.56-2.36-3.98-2.36H14.04Z"/></svg>