<svg xmlns="http://www.w3.org/2000/svg" width="1159.945" height="134.8" viewBox="0 0 1159.945 134.8"><g data-name="Group 6"><path data-name="Path 30" d="M4.7 134.8a4.7 4.7 0 0 1-4.7-4.7V44.5a4.7 4.7 0 0 1 4.7-4.7 4.7 4.7 0 0 1 4.7 4.7v85.6a4.632 4.632 0 0 1-4.7 4.7Z" fill="#00abac"/></g><g data-name="Group 7"><path data-name="Path 31" d="M289.852 134.8a4.7 4.7 0 0 1-4.7-4.7V15.9a4.7 4.7 0 0 1 4.7-4.7 4.7 4.7 0 0 1 4.7 4.7v114.2a4.7 4.7 0 0 1-4.7 4.7Z" fill="#00abac"/></g><g data-name="Group 8"><path data-name="Path 32" d="M571.045 134.8a4.7 4.7 0 0 1-4.7-4.7V71.6a4.7 4.7 0 0 1 4.7-4.7 4.7 4.7 0 0 1 4.7 4.7v58.5a4.632 4.632 0 0 1-4.7 4.7Z" fill="#00abac"/></g><g data-name="Group 9"><path data-name="Path 33" d="M859.163 134.8a4.7 4.7 0 0 1-4.7-4.7V51.3a4.7 4.7 0 0 1 4.7-4.7 4.7 4.7 0 0 1 4.7 4.7v78.8a4.7 4.7 0 0 1-4.7 4.7Z" fill="#00abac"/></g><g data-name="Group 10"><path data-name="Path 34" d="M1155.245 134.8a4.7 4.7 0 0 1-4.7-4.7V4.7a4.7 4.7 0 0 1 4.7-4.7 4.7 4.7 0 0 1 4.7 4.7v125.4a4.7 4.7 0 0 1-4.7 4.7Z" fill="#00abac"/></g></svg>