<svg version="1.1" id="Layer_1" xmlns="http://www.w3.org/2000/svg" x="0" y="0" viewBox="0 0 125.2 134.8" xml:space="preserve"><style>.st4{fill:#00abac}</style><path class="st4" d="M4.7 134.8c-2.6 0-4.7-2.1-4.7-4.7V44.5c0-2.6 2.1-4.7 4.7-4.7s4.7 2.1 4.7 4.7v85.6c.1 2.6-2.1 4.7-4.7 4.7zM33.4 134.8c-2.6 0-4.7-2.1-4.7-4.7V15.9c0-2.6 2.1-4.7 4.7-4.7s4.7 2.1 4.7 4.7v114.2c0 2.6-2.1 4.7-4.7 4.7zM61.7 134.8c-2.6 0-4.7-2.1-4.7-4.7V71.6c0-2.6 2.1-4.7 4.7-4.7s4.7 2.1 4.7 4.7v58.5c.1 2.6-2.1 4.7-4.7 4.7zM90.7 134.8c-2.6 0-4.7-2.1-4.7-4.7V51.3c0-2.6 2.1-4.7 4.7-4.7s4.7 2.1 4.7 4.7v78.8c0 2.6-2.1 4.7-4.7 4.7zM120.5 134.8c-2.6 0-4.7-2.1-4.7-4.7V4.7c0-2.6 2.1-4.7 4.7-4.7s4.7 2.1 4.7 4.7v125.4c0 2.6-2.1 4.7-4.7 4.7z"/></svg>