<svg id="Layer_1" xmlns="http://www.w3.org/2000/svg" viewBox="0 0 986.91 400"><defs><style>.cls-1,.cls-2{fill:#0c090a;stroke-width:0}.cls-2{fill:#00abac}</style></defs><path class="cls-1" d="M114.89 400c-4.81 0-9.23-2.42-11.81-6.48L2.22 235.03c-2.79-4.38-2.96-9.71-.46-14.26 2.5-4.55 7.09-7.27 12.28-7.27l226.94.17-114.27 179.84c-2.58 4.06-7 6.48-11.82 6.48ZM14.04 222.97c-2.43 0-3.59 1.65-3.98 2.36-.39.71-1.15 2.58.15 4.62l100.86 158.49c1.21 1.9 3.08 2.1 3.83 2.1s2.63-.2 3.83-2.1l105.3-165.47H14.04Z"/><path class="cls-2" d="M114.89 293.89c-4.81 0-9.23-2.42-11.81-6.48L2.22 128.92c-2.79-4.38-2.96-9.71-.46-14.26s7.09-7.27 12.28-7.27h201.71c5.19 0 9.78 2.72 12.28 7.27s2.32 9.88-.46 14.26L126.72 287.41c-2.58 4.06-7 6.48-11.82 6.48ZM10.2 123.84l100.86 158.49c1.21 1.9 3.08 2.1 3.83 2.1s2.63-.2 3.83-2.1l100.85-158.49c1.3-2.05.54-3.92.15-4.63s-1.56-2.36-3.98-2.36H14.04c-2.43 0-3.59 1.65-3.98 2.36s-1.15 2.58.15 4.63Z"/><path class="cls-1" d="M114.89 186.49c-4.81 0-9.23-2.42-11.81-6.48L2.22 21.52c-2.79-4.38-2.96-9.71-.46-14.25C4.25 2.72 8.85 0 14.04 0h201.71c5.19 0 9.78 2.72 12.28 7.27 2.5 4.55 2.32 9.88-.47 14.26L126.71 180.02c-2.58 4.06-7 6.48-11.82 6.48ZM14.04 9.46c-2.43 0-3.59 1.65-3.98 2.36-.39.71-1.15 2.58.15 4.62l100.86 158.49c1.21 1.9 3.08 2.1 3.83 2.1s2.63-.2 3.83-2.1L219.58 16.44c1.3-2.05.54-3.91.15-4.62s-1.56-2.36-3.98-2.36H14.04ZM978.38 222.97H212.64v-9.32h765.75c2.61 0 4.73 2.09 4.73 4.66 0 2.57-2.12 4.66-4.73 4.66ZM252.99 368.6c0-1.43.48-2.64 1.44-3.63s2.16-1.48 3.59-1.48c1.81 0 3.27.77 4.37 2.31.71 1.05 1.54 2.14 2.47 3.3 2.47 2.86 5.47 5.23 8.98 7.13 3.52 1.89 7.91 2.93 13.19 3.09 6.87 0 12.99-2.28 18.38-6.84 2.91-2.53 5.33-5.56 7.25-9.11s2.89-7.9 2.89-13.07c0-6.92-2.28-13.02-6.84-18.3-4.89-5.33-11.4-8.68-19.53-10.06-10-1.87-17.31-5.63-21.93-11.29-2.42-2.97-4.29-6.18-5.6-9.64-1.32-3.46-1.98-7.09-1.98-10.88.11-10.27 3.87-18.55 11.29-24.81 5.99-5.16 12.97-7.75 20.94-7.75 9.23 0 17.36 3.82 24.4 11.46 1.21 1.43 2.25 2.88 3.13 4.37.49.83.74 1.76.74 2.8 0 1.37-.49 2.55-1.48 3.55-.99.99-2.17 1.48-3.54 1.48-1.59 0-2.72-.44-3.38-1.32-.88-1.21-1.95-2.58-3.22-4.12-4.12-4.84-9.1-7.44-14.92-7.83-5.99-.39-11.35 1.37-16.07 5.27-4.73 3.96-7.28 8.88-7.67 14.76-.22 3.02.08 5.88.91 8.57s2.23 5.19 4.2 7.5c3.63 4.01 9.62 6.79 17.97 8.33 10.11 1.93 17.97 6.26 23.57 13.02 2.91 3.57 5.16 7.45 6.76 11.62 1.59 4.18 2.39 8.49 2.39 12.94-.11 7.58-1.39 13.64-3.83 18.18-2.45 4.53-5.73 8.53-9.85 11.99-7.36 6.21-15.66 9.31-24.89 9.31-11.59 0-21.6-4.59-30-13.76-.93-1.04-1.95-2.36-3.05-3.96a4.988 4.988 0 0 1-1.07-3.13ZM472.25 323.51c0 18.19-6.46 33.74-19.37 46.65-12.8 12.86-28.33 19.29-46.57 19.29-8.96 0-17.37-1.68-25.22-5.03-7.86-3.35-15-8.11-21.43-14.26-6.15-6.43-10.91-13.57-14.26-21.43-3.35-7.86-5.03-16.27-5.03-25.22 0-18.19 6.43-33.71 19.29-46.57 12.91-12.91 28.46-19.37 46.65-19.37s33.82 6.46 46.57 19.37c12.91 12.86 19.37 28.38 19.37 46.57Zm-65.94-55.8c-15.28 0-28.44 5.47-39.48 16.4-10.88 10.88-16.32 24.01-16.32 39.4s5.44 28.6 16.32 39.48c10.93 10.88 24.09 16.32 39.48 16.32s28.52-5.44 39.4-16.32c10.93-10.88 16.4-24.04 16.4-39.48s-5.47-28.52-16.4-39.4c-10.94-10.93-24.07-16.4-39.4-16.4ZM485.52 262.68c0-1.43.49-2.64 1.48-3.63.99-.99 2.2-1.48 3.63-1.48s2.62.49 3.59 1.48c.96.99 1.44 2.2 1.44 3.63v81.11c0 9.84 3.49 18.22 10.47 25.14 6.92 6.92 15.28 10.39 25.06 10.39s18.22-3.46 25.14-10.39c6.92-6.92 10.39-15.3 10.39-25.14v-81.11c0-1.43.49-2.64 1.48-3.63.99-.99 2.2-1.48 3.63-1.48s2.55.49 3.54 1.48c.99.99 1.48 2.2 1.48 3.63v81.11c0 12.64-4.45 23.41-13.35 32.31-8.9 8.9-19.67 13.35-32.31 13.35s-23.41-4.45-32.31-13.35c-4.45-4.45-7.79-9.36-10.01-14.71-2.23-5.36-3.34-11.22-3.34-17.6v-81.11ZM601.08 384.34c0 1.43-.48 2.64-1.44 3.63s-2.16 1.48-3.59 1.48-2.64-.5-3.63-1.48c-.99-.99-1.48-2.2-1.48-3.63V262.68c0-1.43.49-2.64 1.48-3.63.99-.99 2.2-1.48 3.63-1.48 1.59 0 2.89.6 3.87 1.81l85.72 110.2V262.67c0-1.43.5-2.64 1.48-3.63.99-.99 2.2-1.48 3.63-1.48s2.55.49 3.54 1.48c.99.99 1.48 2.2 1.48 3.63v121.66c0 1.43-.49 2.64-1.48 3.63-.99.99-2.17 1.48-3.54 1.48-1.65 0-2.91-.5-3.79-1.48l-85.89-110.45v106.82ZM741.78 257.57c18.19 0 33.71 6.46 46.57 19.37 12.91 12.86 19.37 28.38 19.37 46.57s-6.46 33.74-19.37 46.65c-12.86 12.86-28.38 19.29-46.57 19.29h-27.12c-1.37 0-2.55-.5-3.54-1.48-.99-.99-1.48-2.2-1.48-3.63V262.68c0-1.43.49-2.64 1.48-3.63.99-.99 2.17-1.48 3.54-1.48h27.12Zm0 121.74c15.27 0 28.41-5.44 39.4-16.32 10.93-10.93 16.4-24.1 16.4-39.48s-5.47-28.47-16.4-39.4c-11.04-10.93-24.18-16.4-39.4-16.4h-22.01v111.6h22.01Z"/><rect class="cls-2" x="856.07" y="293.94" width="9.46" height="95.05" rx="4.73" ry="4.73"/><rect class="cls-2" x="884.72" y="265.31" width="9.46" height="123.67" rx="4.73" ry="4.73"/><rect class="cls-2" x="913.06" y="321" width="9.46" height="67.99" rx="4.73" ry="4.73"/><rect class="cls-2" x="942.01" y="300.72" width="9.46" height="88.27" rx="4.73" ry="4.73"/><rect class="cls-2" x="971.82" y="254.14" width="9.46" height="134.85" rx="4.73" ry="4.73"/><path class="cls-1" d="M266.4 113.62h-19.02c-1.57 0-2.84-1.27-2.84-2.84 0-1.57 1.27-2.84 2.84-2.84H292c1.57 0 2.84 1.27 2.84 2.84 0 1.57-1.27 2.84-2.84 2.84h-19.02v53.69c0 1.57-1.27 2.84-2.84 2.84h-.89c-1.57 0-2.84-1.27-2.84-2.84v-53.69ZM357.33 110.77v56.45c0 1.62-1.31 2.93-2.93 2.93h-.62c-1.62 0-2.93-1.31-2.93-2.93v-25.78h-38.93v25.78c0 1.62-1.31 2.93-2.93 2.93h-.71c-1.62 0-2.93-1.31-2.93-2.93v-56.45c0-1.57 1.27-2.84 2.84-2.84h.89c1.57 0 2.84 1.27 2.84 2.84v24.89h38.93v-24.89c0-1.57 1.27-2.84 2.84-2.84h.8c1.57 0 2.84 1.27 2.84 2.84ZM419.22 168.92l-13.34-18.77c-1.6.18-3.2.26-4.98.26h-16.71v16.8c0 1.62-1.31 2.93-2.93 2.93h-.71c-1.62 0-2.93-1.31-2.93-2.93v-59.29h23.29c15.82 0 25.42 8 25.42 21.34 0 9.78-5.16 16.62-14.22 19.55l11.9 16.7c1.38 1.94 0 4.63-2.39 4.63-.95 0-1.84-.46-2.39-1.23Zm.52-39.66c0-9.96-6.58-15.65-19.02-15.65h-16.53v31.2h16.53c12.44 0 19.02-5.78 19.02-15.55ZM485.88 167.26v.09c0 1.55-1.25 2.8-2.8 2.8h-41.2v-62.22h42.67v5.69h-36.09v22.13h29.38c1.55 0 2.8 1.25 2.8 2.8 0 1.55-1.25 2.8-2.8 2.8h-29.38v23.11h34.62c1.55 0 2.8 1.25 2.8 2.8ZM545.35 167.26v.09c0 1.55-1.25 2.8-2.8 2.8h-41.2v-62.22h39.86c1.55 0 2.8 1.25 2.8 2.8v.09c0 1.55-1.25 2.8-2.8 2.8h-33.29v22.13h29.38c1.55 0 2.8 1.25 2.8 2.8 0 1.55-1.25 2.8-2.8 2.8h-29.38v23.11h34.62c1.55 0 2.8 1.25 2.8 2.8ZM623.14 153.53h-34.67l-6.69 14.89a2.932 2.932 0 0 1-2.67 1.73h-.39c-2.13 0-3.55-2.21-2.67-4.15l25.2-55.12c.82-1.8 2.62-2.95 4.59-2.95 1.98 0 3.77 1.15 4.59 2.95l25.2 55.12c.89 1.94-.53 4.15-2.67 4.15h-.48c-1.15 0-2.2-.68-2.67-1.73l-6.69-14.89Zm-2.4-5.33-14.93-33.42-14.93 33.42h29.87ZM689.47 168.92l-13.35-18.77c-1.6.18-3.2.26-4.98.26h-16.71v16.8c0 1.62-1.31 2.93-2.93 2.93h-.72c-1.62 0-2.93-1.31-2.93-2.93v-59.29h23.29c15.82 0 25.42 8 25.42 21.34 0 9.78-5.16 16.62-14.22 19.55l11.9 16.7c1.38 1.94 0 4.63-2.39 4.63-.95 0-1.84-.46-2.39-1.23Zm.52-39.66c0-9.96-6.58-15.65-19.02-15.65h-16.53v31.2h16.53c12.44 0 19.02-5.78 19.02-15.55ZM753.75 168.92l-13.35-18.77c-1.6.18-3.2.26-4.98.26h-16.71v16.8c0 1.62-1.31 2.93-2.93 2.93h-.72c-1.62 0-2.93-1.31-2.93-2.93v-59.29h23.29c15.82 0 25.42 8 25.42 21.34 0 9.78-5.16 16.62-14.22 19.55l11.9 16.7c1.38 1.94 0 4.63-2.39 4.63-.95 0-1.84-.46-2.39-1.23Zm.52-39.66c0-9.96-6.58-15.65-19.02-15.65h-16.53v31.2h16.53c12.45 0 19.02-5.78 19.02-15.55ZM770.9 139.04c0-18.13 13.87-31.64 32.71-31.64s32.62 13.42 32.62 31.64-13.96 31.64-32.62 31.64-32.71-13.51-32.71-31.64Zm58.75 0c0-14.84-11.11-25.78-26.04-25.78s-26.22 10.93-26.22 25.78 11.2 25.78 26.22 25.78 26.04-10.93 26.04-25.78ZM933.29 111.67l-19.07 56.56a2.839 2.839 0 0 1-2.68 1.93h-2.88c-1.21 0-2.29-.77-2.68-1.91l-17.56-51.15-17.65 51.16a2.834 2.834 0 0 1-2.68 1.91h-2.79c-1.22 0-2.3-.78-2.68-1.93l-19.07-56.56c-.62-1.84.75-3.74 2.68-3.74h.77c1.22 0 2.3.78 2.68 1.93l17.31 51.58 17.91-51.61c.4-1.14 1.47-1.9 2.68-1.9h2.09c1.21 0 2.29.77 2.68 1.92l17.66 51.86 17.57-51.85a2.83 2.83 0 0 1 2.68-1.92h.34c1.94 0 3.3 1.9 2.68 3.74ZM941.58 160.67c.79-1.55 2.76-2.01 4.18-1.01 4.59 3.23 11.18 5.42 17.95 5.42 11.64 0 16.71-4.89 16.71-11.02 0-17.07-38.31-6.58-38.31-29.6 0-9.15 7.11-17.07 22.93-17.07 6.08 0 12.35 1.53 17.16 4.19 1.25.69 1.74 2.24 1.18 3.56l-.02.05c-.65 1.54-2.48 2.15-3.97 1.38-4.66-2.4-9.75-3.58-14.35-3.58-11.38 0-16.44 5.07-16.44 11.29 0 17.07 38.31 6.75 38.31 29.42 0 9.16-7.29 16.98-23.2 16.98-8.31 0-16.49-2.61-21.44-6.57-1.03-.82-1.29-2.28-.69-3.44Z"/></svg>